# xmcd
#
# Track frame offsets: 
#        150
#        14480
#        37065
#        54126
#        73439
#        97487
#        118305
#        137561
#        154833
#        172825
#
# Disc length: 2605 seconds
#
# Revision: 0
# Processed by: cddbd v1.5.2PL0 Copyright (c) Steve Scherf et al.
# Submitted via: ExactAudioCopy v1.0b4
#
DISCID=910a2b0a
DTITLE=Kurt Crandall - Take It Off
DYEAR=2016
DGENRE=Blues
TTITLE0=8th Event
TTITLE1=Take It Off
TTITLE2=Can't Dance
TTITLE3=Loser
TTITLE4=Taquito Under My Seat
TTITLE5=TV Mama
TTITLE6=Dirty Pete
TTITLE7=Figgy Bag
TTITLE8=Why You Do
TTITLE9=Bolivar Blues
EXTD=
EXTT0=
EXTT1=
EXTT2=
EXTT3=
EXTT4=
EXTT5=
EXTT6=
EXTT7=
EXTT8=
EXTT9=
PLAYORDER=
